<?xml version="1.0" encoding="utf-8"?>
<svg viewBox="9.9985 8 14.0015 14" xmlns="http://www.w3.org/2000/svg">
  <path d="M 11 8 C 10.23 8 9.749 8.833 10.134 9.5 C 10.313 9.809 10.643 10 11 10 C 11.77 10 12.251 9.167 11.866 8.5 C 11.687 8.191 11.357 8 11 8 Z M 10 11 L 10 22 L 12 22 L 12 11 L 10 11 Z M 14 11 L 14 12 L 14 22 L 18.5 22 C 21.526 22 24 19.526 24 16.5 C 24 13.474 21.526 11 18.5 11 L 14 11 Z M 16 13 L 18.5 13 C 20.444 13 22 14.556 22 16.5 C 22 18.444 20.444 20 18.5 20 L 16 20 L 16 13 Z" style="fill: rgb(255, 255, 255);"/>
</svg>